<?xml version="1.0" standalone="no"?>
<!DOCTYPE svg PUBLIC "-//W3C//DTD SVG 20010904//EN"
 "http://www.w3.org/TR/2001/REC-SVG-20010904/DTD/svg10.dtd">
<svg version="1.0" xmlns="http://www.w3.org/2000/svg"
 width="315.000000pt" height="315.000000pt" viewBox="0 0 315.000000 315.000000"
 preserveAspectRatio="xMidYMid meet">
<metadata>
Created by potrace 1.11, written by Peter Selinger 2001-2013
</metadata>
<g transform="translate(0.000000,315.000000) scale(0.100000,-0.100000)"
fill="#000000" stroke="none">
<path d="M2675 2464 c-5 -1 -22 -5 -37 -8 -37 -8 -53 -57 -33 -97 9 -16 19
-29 23 -30 77 -8 98 -13 119 -26 48 -32 52 -52 53 -318 1 -261 7 -313 43 -375
20 -35 20 -40 6 -57 -40 -45 -48 -103 -49 -360 0 -137 -5 -265 -11 -286 -12
-45 -44 -68 -112 -78 -60 -10 -78 -25 -79 -68 -2 -51 26 -73 92 -70 111 5 183
49 223 139 19 41 20 68 22 315 2 234 4 274 19 303 19 37 65 61 114 60 42 -1
72 26 72 67 0 42 -29 67 -82 72 -50 5 -81 23 -105 59 -14 23 -17 61 -18 292
-2 308 -7 335 -72 398 -32 32 -56 45 -95 54 -75 16 -82 17 -93 14z"/>
<path d="M354 2444 c-53 -19 -100 -68 -124 -131 -16 -44 -19 -80 -20 -307 -1
-277 -6 -310 -52 -340 -12 -8 -41 -17 -63 -20 -67 -8 -84 -21 -90 -71 -3 -25
30 -65 55 -66 69 -2 114 -25 137 -70 9 -17 13 -95 13 -271 0 -137 5 -269 11
-297 23 -108 101 -169 227 -179 74 -5 102 12 102 62 -1 46 -23 68 -71 73 -24
2 -55 11 -71 19 -54 28 -58 49 -59 319 -1 262 -10 330 -49 386 -11 15 -16 30
-11 33 10 6 39 66 48 99 4 12 8 141 10 287 3 176 8 273 16 289 18 37 59 62
104 64 52 3 83 30 83 72 0 48 -26 65 -96 64 -32 0 -77 -7 -100 -15z"/>
<path d="M908 1923 c-24 -81 -32 -112 -44 -168 -32 -145 -22 -293 33 -490 36
-126 35 -126 80 -113 87 23 294 144 459 268 36 28 45 30 80 23 21 -5 65 -6 97
-2 l59 7 116 -84 c64 -46 128 -89 142 -96 14 -7 40 -23 58 -35 30 -20 150 -73
198 -87 27 -8 33 7 75 169 55 209 47 392 -25 620 -22 70 -22 70 -57 67 -70 -6
-257 -111 -438 -246 -56 -41 -79 -53 -91 -46 -17 9 -157 6 -167 -4 -3 -3 -33
16 -67 42 -80 62 -113 84 -221 150 -87 53 -218 112 -248 112 -9 0 -23 -30 -39
-87z"/>
</g>
</svg>
