<svg id="Ebene_1" data-name="Ebene 1" xmlns="http://www.w3.org/2000/svg" width="1264.66" height="177.23" viewBox="0 0 1264.66 177.23"><defs><style>.cls-1{fill:#fff;}</style></defs><title>sircode-text-white</title><path class="cls-1" d="M20.21,149.79V109q0-13.78-13.78-13.78a6.59,6.59,0,0,1-4.88-1.92A6.37,6.37,0,0,1-.36,88.56a6.57,6.57,0,0,1,6.8-6.81q13.78,0,13.78-13.78V27.15Q20.21-.23,47.43-.23a6.29,6.29,0,0,1,4.71,2,6.93,6.93,0,0,1,1.92,5,6.55,6.55,0,0,1-1.83,4.71,6.3,6.3,0,0,1-4.8,1.92q-13.78,0-13.78,13.78V68q0,12.73-6.81,20.58,6.8,7.68,6.81,20.41v40.82q0,13.61,13.78,13.61a6.43,6.43,0,0,1,4.71,1.92,7.18,7.18,0,0,1,0,9.77A6.4,6.4,0,0,1,47.43,177Q20.21,177,20.21,149.79Z" transform="translate(0.36 0.23)"/><path class="cls-1" d="M292.48,27V67.8q0,13.78,13.78,13.78a6.59,6.59,0,0,1,4.88,1.92,6.37,6.37,0,0,1,1.92,4.71,6.57,6.57,0,0,1-6.8,6.81q-13.78,0-13.78,13.78v40.82q0,27.38-27.21,27.38a6.29,6.29,0,0,1-4.71-2,6.93,6.93,0,0,1-1.92-5,6.55,6.55,0,0,1,1.83-4.71,6.3,6.3,0,0,1,4.8-1.92q13.78,0,13.78-13.78V108.79q0-12.73,6.81-20.58Q279,80.53,279,67.8V27q0-13.61-13.78-13.61a6.43,6.43,0,0,1-4.71-1.92,6.62,6.62,0,0,1-1.92-4.88,6.61,6.61,0,0,1,1.92-4.88,6.4,6.4,0,0,1,4.71-1.92Q292.48-.23,292.48,27Z" transform="translate(0.36 0.23)"/><path class="cls-1" d="M229,88.26c0-18.81-9.13-43.34-9.13-43.34-19.26,3.29-51.79,29.43-54,31.25-.92-.77-3.32-1.78-9.54-1.78s-8.63,1-9.56,1.78c-2.24-1.82-34.78-28-54-31.25,0,0-9.13,24.53-9.13,43.34s9.13,43.34,9.13,43.34c19.26-3.29,51.8-29.44,54-31.26.93.77,3.33,1.78,9.56,1.78s8.62-1,9.54-1.78c2.25,1.83,34.79,28,54,31.26C219.87,131.6,229,107.08,229,88.26Z" transform="translate(0.36 0.23)"/><path class="cls-1" d="M394,168.05q-16.24-8.95-23.31-24.2a7,7,0,0,1-.88-3.54,6.73,6.73,0,0,1,2.32-5.19,9,9,0,0,1,6.3-2.1,9.29,9.29,0,0,1,5,1.44,8.54,8.54,0,0,1,3.43,4.09q5.08,9.94,16.91,16t27.51,6.08q18.12,0,29.17-8.73t11-24.42a30.65,30.65,0,0,0-10.27-23.42q-10.28-9.5-30.83-12.15-25.64-3.09-40.33-16T375.33,44.19a39.07,39.07,0,0,1,7.18-23.31A45.83,45.83,0,0,1,402.4,5.41,72.94,72.94,0,0,1,431.24,0Q448.69,0,462,7.73a58,58,0,0,1,20.77,20.11,9.71,9.71,0,0,1,1.55,5.3,7.45,7.45,0,0,1-4,6.63,8.77,8.77,0,0,1-4,.88,8.87,8.87,0,0,1-4.53-1.22A9.5,9.5,0,0,1,468.36,36Q456,16.58,431,16.35q-17.9,0-28.28,7.51T392.35,45.3q0,25.85,41.76,31.38,27.4,4,40.88,16.79t13.48,33.81q0,15.47-7.51,26.74a47.44,47.44,0,0,1-20.55,17.13A70.47,70.47,0,0,1,431.24,177Q410.24,177,394,168.05Z" transform="translate(0.36 0.23)"/><path class="cls-1" d="M525.7,27.4a11.9,11.9,0,0,1-3.43-8.62,11.27,11.27,0,0,1,3.54-8.62,12.13,12.13,0,0,1,8.62-3.31,11.86,11.86,0,0,1,8.4,3.31,11.28,11.28,0,0,1,3.54,8.62,11.73,11.73,0,0,1-3.54,8.62,11.72,11.72,0,0,1-8.62,3.54A11.35,11.35,0,0,1,525.7,27.4Zm2.54,145a8.37,8.37,0,0,1-2.43-6.19V62.54a8.32,8.32,0,0,1,8.62-8.62,8,8,0,0,1,6.08,2.43,8.61,8.61,0,0,1,2.32,6.19V166.17a8.6,8.6,0,0,1-2.32,6.19,8,8,0,0,1-6.08,2.43A8.37,8.37,0,0,1,528.24,172.36Z" transform="translate(0.36 0.23)"/><path class="cls-1" d="M655.41,55q5.41,2.43,5.41,6.85a6.82,6.82,0,0,1-.22,2,6.74,6.74,0,0,1-2.76,4.2,10.25,10.25,0,0,1-5.19,1.1q-2,0-6.85-.44a47.1,47.1,0,0,0-5.3-.22q-16.57,0-27.07,8.84t-10.5,23v66.07a8.41,8.41,0,1,1-16.79,0V62.31a8.41,8.41,0,1,1,16.79,0V72a43.88,43.88,0,0,1,16.35-14.36,46.43,46.43,0,0,1,21.43-5.08Q650,52.59,655.41,55Z" transform="translate(0.36 0.23)"/><path class="cls-1" d="M724,165.07a89.29,89.29,0,0,1-42.87-76.68,88.3,88.3,0,0,1,11.49-44.19A87.29,87.29,0,0,1,723.8,11.93,81.89,81.89,0,0,1,767.11,0a85.87,85.87,0,0,1,28.95,4.64,82.56,82.56,0,0,1,25.19,14.81,5.91,5.91,0,0,1,2.43,5.08,6,6,0,0,1-.88,3.2,5.2,5.2,0,0,1-2.43,2.1,4,4,0,0,1-2,2.43,6.57,6.57,0,0,1-3.31.88,8,8,0,0,1-5.52-2,55.15,55.15,0,0,0-18.78-11.27,72,72,0,0,0-23.64-3.54,64.38,64.38,0,0,0-34.47,9.83,72.54,72.54,0,0,0-25.3,26.41,71.39,71.39,0,0,0-9.39,35.8,72.92,72.92,0,0,0,9.28,36.24,70.79,70.79,0,0,0,25.19,26.3,65.27,65.27,0,0,0,34.69,9.72q24.08,0,43.53-15.47a8.24,8.24,0,0,1,4.86-1.77,8.12,8.12,0,0,1,8.18,8.4,8.87,8.87,0,0,1-2.43,6.19q-20.77,19-54.14,19A81.51,81.51,0,0,1,724,165.07Z" transform="translate(0.36 0.23)"/><path class="cls-1" d="M875.05,167.94a57.29,57.29,0,0,1-22-22,62.72,62.72,0,0,1-8-31.49,63.35,63.35,0,0,1,8-31.6,57.12,57.12,0,0,1,22-22.1,66.08,66.08,0,0,1,62.87,0,58.16,58.16,0,0,1,22,22.1,62.67,62.67,0,0,1,8.07,31.6A62.7,62.7,0,0,1,960,146a57.31,57.31,0,0,1-22,22,66.3,66.3,0,0,1-63,0Zm54.47-13.48A42.25,42.25,0,0,0,945.43,138a48.2,48.2,0,0,0,5.74-23.53,48.67,48.67,0,0,0-5.74-23.75,42.27,42.27,0,0,0-15.91-16.46,47,47,0,0,0-45.85,0,42.77,42.77,0,0,0-16.13,16.46,47.92,47.92,0,0,0-5.86,23.75A47.46,47.46,0,0,0,867.54,138a42.75,42.75,0,0,0,16.13,16.46,47,47,0,0,0,45.85,0Z" transform="translate(0.36 0.23)"/><path class="cls-1" d="M1117.57,62.31v51.93a62.22,62.22,0,0,1-8.07,31.38,58.71,58.71,0,0,1-22.1,22.21,64.64,64.64,0,0,1-62.54,0,58.66,58.66,0,0,1-22.1-22.21,62.19,62.19,0,0,1-8.07-31.38A63,63,0,0,1,1002.55,83a58.2,58.2,0,0,1,51.82-30.16,57.12,57.12,0,0,1,26.3,6.08,54.7,54.7,0,0,1,19.67,16.68V10.83A8.32,8.32,0,0,1,1109,2.21,8,8,0,0,1,1115,4.64a8.61,8.61,0,0,1,2.32,6.19v49.5A6.77,6.77,0,0,1,1117.57,62.31Zm-38.67,92a43.83,43.83,0,0,0,16-16.57,47.48,47.48,0,0,0,5.86-23.53,50.2,50.2,0,0,0-.22-5.52,2.44,2.44,0,0,1-.22-1.11q-2.21-17.24-14.47-28.28t-29.72-11a44.72,44.72,0,0,0-22.87,6,42.77,42.77,0,0,0-16.13,16.46,47.48,47.48,0,0,0-5.86,23.53,47.45,47.45,0,0,0,5.86,23.53,43.53,43.53,0,0,0,16.13,16.57,44.06,44.06,0,0,0,22.87,6.08A43.48,43.48,0,0,0,1078.9,154.35Z" transform="translate(0.36 0.23)"/><path class="cls-1" d="M1237.78,60.44a52,52,0,0,1,19.56,21.1q7,13.48,7,30.71a7.41,7.41,0,0,1-2.21,5.64,8,8,0,0,1-5.74,2.1h-89.27q1.77,18.12,14.14,29.39t30.94,11.27a49.17,49.17,0,0,0,16-2.76,38.84,38.84,0,0,0,12.93-7,9.68,9.68,0,0,1,6-2.21,8.25,8.25,0,0,1,4.86,1.77,8,8,0,0,1,2.87,6,6.7,6.7,0,0,1-2.43,5.08,60,60,0,0,1-18.56,10.28,63.38,63.38,0,0,1-21.66,4.09q-17.68,0-31.6-7.84a56,56,0,0,1-21.77-21.88,63.83,63.83,0,0,1-7.85-31.71q0-17.9,7.4-31.93a54.52,54.52,0,0,1,20.55-21.88,57.32,57.32,0,0,1,29.94-7.84Q1225.18,52.81,1237.78,60.44Zm-56.79,18q-11.05,10.39-13.48,27.4h80.88q-1.77-17-12.37-27.4t-27.18-10.39Q1192,68.06,1181,78.45Z" transform="translate(0.36 0.23)"/></svg>